<?xml version="1.0" standalone="no"?>
<!DOCTYPE svg PUBLIC "-//W3C//DTD SVG 20010904//EN"
 "http://www.w3.org/TR/2001/REC-SVG-20010904/DTD/svg10.dtd">
<svg version="1.0" xmlns="http://www.w3.org/2000/svg"
 width="16.000000pt" height="16.000000pt" viewBox="0 0 16.000000 16.000000"
 preserveAspectRatio="xMidYMid meet">
<metadata>
Created by potrace 1.11, written by Peter Selinger 2001-2013
</metadata>
<g transform="translate(0.000000,16.000000) scale(0.005926,-0.005926)"
fill="#000000" stroke="none">
<path d="M1715 2543 c-82 -10 -82 -13 -4 -47 42 -18 85 -41 98 -52 63 -54 93
-94 112 -145 19 -52 26 -59 74 -83 30 -14 58 -26 64 -26 5 0 13 -4 16 -10 4
-6 -5 -6 -22 1 -48 19 -237 69 -242 64 -2 -3 0 -5 6 -5 18 0 74 -60 61 -64
-19 -6 -56 -16 -116 -31 -52 -13 -53 -13 -82 14 -17 15 -58 41 -92 59 l-63 32
-95 -10 c-52 -6 -99 -15 -104 -20 -6 -6 -20 -10 -32 -10 -29 0 -134 -39 -156
-58 -10 -8 -18 -12 -18 -8 0 9 -55 -20 -103 -55 -22 -16 -45 -29 -50 -29 -6 0
-17 -7 -26 -15 -9 -8 -36 -32 -60 -52 -24 -21 -49 -44 -55 -51 -6 -7 -32 -35
-58 -61 -27 -26 -48 -53 -48 -59 0 -7 -13 -24 -30 -38 -16 -15 -32 -36 -36
-48 -4 -12 -22 -42 -40 -69 -19 -26 -34 -53 -34 -60 0 -7 -11 -32 -24 -57 -32
-62 -41 -100 -22 -100 20 0 256 -144 256 -156 0 -11 -102 -214 -108 -214 -4 0
-32 16 -62 36 -75 49 -105 64 -132 64 -22 0 -23 -3 -26 -93 -3 -122 15 -267
45 -347 14 -36 29 -77 35 -92 5 -16 14 -28 19 -28 5 0 9 -7 9 -15 0 -8 12 -22
27 -32 16 -10 34 -25 41 -35 6 -9 36 -24 65 -34 28 -9 57 -20 63 -25 23 -19
212 -40 329 -37 128 3 126 2 110 54 -6 18 0 22 47 31 29 6 86 20 126 30 l72
20 0 -28 c0 -37 9 -59 25 -59 19 0 118 32 133 43 7 6 34 20 60 32 46 21 171
105 203 135 8 8 36 34 62 58 75 68 169 199 225 313 29 58 52 110 52 115 0 5
11 44 25 87 36 114 45 199 28 258 -8 27 -18 49 -22 49 -4 0 -13 12 -19 26 -36
78 -291 355 -426 462 l-58 47 43 13 c24 7 69 15 101 19 l56 6 101 -98 c128
-124 221 -244 221 -285 0 -16 6 -33 14 -37 21 -12 28 -140 16 -257 -12 -111
-38 -245 -49 -261 -4 -5 -18 -43 -31 -83 -12 -39 -26 -72 -31 -72 -4 0 -11
-10 -15 -22 -3 -13 -19 -42 -35 -66 -26 -38 -27 -41 -7 -31 25 13 196 183 221
219 174 252 227 419 227 725 0 206 -26 326 -98 459 -50 92 -180 163 -356 195
-55 10 -331 13 -401 4z m475 -479 c49 -98 73 -154 66 -161 -3 -3 -6 1 -6 10 0
9 -4 17 -8 17 -4 0 -16 21 -25 47 -24 64 -74 141 -98 148 -10 4 -19 11 -19 17
0 25 66 -32 90 -78z m-580 48 c10 -12 23 -22 28 -22 5 0 16 -7 23 -16 11 -14
10 -19 -7 -33 -17 -14 -19 -19 -7 -29 25 -24 15 -65 -23 -89 -46 -29 -50 -29
-85 8 l-29 31 -45 -33 c-40 -29 -43 -34 -31 -48 29 -32 30 -70 5 -97 -42 -45
-55 -47 -98 -18 -42 28 -59 25 -95 -14 -18 -20 -17 -22 14 -61 l33 -40 -33
-40 c-37 -48 -71 -53 -114 -20 -26 21 -27 21 -47 3 -42 -38 -44 -54 -10 -85
33 -30 39 -59 18 -81 -7 -7 -22 -26 -32 -41 -15 -23 -23 -27 -43 -22 -14 3
-31 12 -36 19 -19 23 -45 26 -58 7 -23 -31 -34 -31 -68 -1 -19 17 -37 30 -42
30 -13 0 -9 55 5 69 10 10 7 16 -15 32 -19 14 -25 25 -21 42 8 34 32 85 45 93
7 4 8 3 4 -4 -9 -14 4 -15 24 -2 12 8 12 10 1 10 -8 0 -12 3 -8 6 3 3 16 -1
29 -10 32 -23 42 -20 73 20 25 33 26 38 11 46 -9 5 -16 18 -16 29 0 11 -5 17
-10 14 -28 -17 16 43 46 64 32 22 38 23 71 12 33 -12 37 -11 66 16 18 15 34
29 36 31 3 1 -4 8 -15 16 -18 14 -18 15 1 52 22 41 35 46 110 46 39 0 58 6 84
25 29 23 32 28 18 37 -17 14 -8 31 33 58 19 12 45 16 109 14 73 -1 86 -5 101
-24z m55 -202 c-7 -12 -72 -40 -89 -39 -6 0 8 8 31 17 23 9 45 20 49 25 11 10
16 9 9 -3z m602 -52 c-3 -7 -5 -2 -5 12 0 14 2 19 5 13 2 -7 2 -19 0 -25z m10
-60 c-3 -7 -5 -2 -5 12 0 14 2 19 5 13 2 -7 2 -19 0 -25z m-813 -37 c-48 -45
-84 -65 -95 -54 -7 7 -2 12 15 17 14 3 42 23 63 44 21 20 40 33 42 28 2 -5 -9
-21 -25 -35z m-143 -117 c5 -6 2 -20 -8 -33 -15 -23 -15 -23 8 -11 13 7 27 18
31 24 5 6 5 -3 2 -20 -4 -20 -1 -36 9 -45 12 -13 12 -16 -1 -28 -13 -12 -14
-12 -10 0 5 15 -19 38 -40 39 -17 0 -42 -24 -42 -41 0 -7 7 -20 15 -29 14 -16
13 -19 -17 -40 -18 -12 -40 -36 -49 -54 -10 -19 -24 -31 -37 -32 -37 -2 -52
-13 -52 -39 0 -18 -5 -25 -20 -25 -11 0 -20 5 -20 10 0 16 -50 12 -56 -5 -4
-8 -12 -15 -19 -15 -16 0 -30 19 -20 28 3 3 10 0 15 -8 8 -12 10 -10 10 8 0
13 4 20 10 17 30 -19 100 71 100 129 0 29 -4 39 -20 43 -11 3 -20 11 -20 19 0
20 17 26 24 8 3 -8 10 -13 14 -10 5 3 29 8 53 11 35 4 52 13 82 45 24 25 38
49 37 63 -3 32 2 45 7 22 3 -11 9 -25 14 -31z m109 -14 c0 -5 -2 -10 -4 -10
-3 0 -8 5 -11 10 -3 6 -1 10 4 10 6 0 11 -4 11 -10z m7 -185 c-7 -13 -14 -20
-15 -14 -2 5 2 16 8 24 18 21 20 18 7 -10z m-59 -15 c11 0 24 -4 27 -10 4 -6
-5 -7 -23 -4 -32 7 -62 -15 -62 -45 0 -13 -8 -18 -25 -18 -31 0 -55 -20 -55
-45 0 -13 -5 -18 -17 -15 -30 6 -73 -21 -73 -46 0 -13 -3 -17 -8 -11 -4 6 -13
13 -21 16 -9 2 6 17 38 37 30 18 65 46 78 62 17 20 31 28 43 24 13 -4 22 3 33
24 13 26 13 29 0 24 -13 -5 -13 -3 -2 15 12 19 15 20 29 7 9 -8 26 -15 38 -15z
m-385 -321 c166 -160 258 -262 348 -387 27 -37 57 -78 68 -92 12 -14 21 -28
21 -32 0 -9 -60 -25 -163 -44 l-82 -14 -30 33 c-16 18 -46 53 -65 77 -74 92
-128 149 -252 273 l-129 128 35 77 c20 42 41 84 46 92 6 8 13 23 16 33 4 9 9
17 13 17 4 0 82 -72 174 -161z"/>
<path d="M1244 1539 c-3 -6 -19 -9 -35 -7 -34 5 -36 -2 -8 -28 21 -19 21 -18
40 5 18 22 25 41 15 41 -3 0 -8 -5 -12 -11z"/>
<path d="M1157 1461 c3 -12 0 -28 -7 -36 -10 -12 -9 -15 8 -15 43 0 57 62 15
68 -17 3 -20 -1 -16 -17z"/>
</g>
</svg>
